<svg width="75" height="75" viewBox="0 0 75 75" fill="none" xmlns="http://www.w3.org/2000/svg">
<circle cx="37.5" cy="37.5" r="37.5" fill="#A7CABF"/>
<g clip-path="url(#clip0_936_19)">
<path d="M63.4548 55.9471C63.1502 55.4904 55.7873 44.75 37.9992 44.75C20.216 44.75 12.8499 55.4904 12.5452 55.9471C11.5515 57.4421 11.9545 59.4571 13.4463 60.454C14.938 61.4477 16.9563 61.0447 17.9532 59.5529C18.0101 59.4701 23.657 51.25 37.9992 51.25C52.1497 51.25 57.8242 59.2353 58.0468 59.5529C58.6749 60.4922 59.7035 61 60.7573 61C61.3732 61 62.0013 60.8221 62.5538 60.454C64.0455 59.4579 64.4518 57.4421 63.4548 55.9471Z" fill="#3C514A"/>
<path d="M37.9993 41.5C45.1785 41.5 50.9993 35.6825 50.9993 28.5V22C50.9993 14.8175 45.1785 9 37.9993 9C30.82 9 24.9993 14.8175 24.9993 22V28.5C24.9993 35.6825 30.82 41.5 37.9993 41.5ZM31.4993 22C31.4993 18.4104 34.4129 15.5 37.9993 15.5C41.5921 15.5 44.4993 18.4104 44.4993 22V28.5C44.4993 32.0896 41.5921 35 37.9993 35C34.4129 35 31.4993 32.0896 31.4993 28.5V22Z" fill="#3C514A"/>
</g>
<defs>
<clipPath id="clip0_936_19">
<rect width="52" height="52" fill="white" transform="translate(12 9)"/>
</clipPath>
</defs>
</svg>
