<svg width="143" height="24" viewBox="0 0 143 24" fill="none" xmlns="http://www.w3.org/2000/svg">
<g clip-path="url(#clip0_929_15)">
<path d="M114.304 2.52026C114.566 2.3454 114.737 2.295 114.737 2.295C114.815 2.25467 114.909 2.26165 114.979 2.31281C115.05 2.36438 115.086 2.45125 115.072 2.53771L115.007 2.9266L114.637 5.12775C114.566 5.55193 114.882 5.95787 115.343 6.03464L117.987 6.47316C118.447 6.54957 118.878 6.26768 118.948 5.8431L119.328 3.58885L119.389 3.22013C119.403 3.13442 119.465 3.06348 119.547 3.03752C119.63 3.01154 119.721 3.03442 119.782 3.09685C119.782 3.09685 119.952 3.21743 120.155 3.47954C120.665 4.13946 120.992 4.9529 121.051 5.84779C121.134 7.10983 120.669 8.28192 119.86 9.13067C119.616 9.38696 118.304 10.2466 118.304 11.4276C118.304 12.6086 118.305 22.5859 118.305 22.5859C118.304 23.5982 117.484 24.4187 116.472 24.4187C115.46 24.4183 114.639 23.5978 114.639 22.5859C114.639 22.5859 114.639 12.3639 114.639 11.4271C114.639 10.4904 113.48 9.05308 113.257 8.76074C112.758 8.10586 112.44 7.30249 112.382 6.41924C112.276 4.81367 113.056 3.35425 114.304 2.52026ZM116.472 23.4257C116.957 23.4257 117.35 23.0329 117.35 22.5475C117.35 22.0628 116.957 21.6693 116.472 21.6697C115.987 21.6693 115.594 22.0624 115.594 22.5479C115.594 23.0325 115.987 23.4257 116.472 23.4257Z" fill="#A7CABF"/>
<path d="M6.66402 20.472V14.732H20.972V20.472H6.66402ZM18.76 3L27.972 24H20.272L13.02 6.192H14.868L7.61602 24H-0.0839844L9.12802 3H18.76Z" fill="#A7CABF"/>
<path d="M35.3056 24.476C33.7936 24.476 32.4963 24.168 31.4136 23.552C30.3309 22.9173 29.5003 22.04 28.9216 20.92C28.3616 19.7813 28.0816 18.4653 28.0816 16.972V7.9H35.1936V15.964C35.1936 16.8413 35.4176 17.5227 35.8656 18.008C36.3323 18.4933 36.9856 18.736 37.8256 18.736C38.4789 18.736 39.0109 18.624 39.4216 18.4C39.8509 18.1573 40.1683 17.8027 40.3736 17.336C40.5976 16.8507 40.7096 16.2627 40.7096 15.572L42.8096 16.636C42.5669 18.372 42.0723 19.828 41.3256 21.004C40.5976 22.1613 39.7109 23.0293 38.6656 23.608C37.6389 24.1867 36.5189 24.476 35.3056 24.476ZM40.7096 24V7.9H47.8216V24H40.7096Z" fill="#A7CABF"/>
<path d="M49.6875 13.08V10.028L52.8515 8.432L55.9595 3.504H59.9635V7.9H66.2635V13.08H59.9635V16.384C59.9635 17.4107 60.1595 18.1387 60.5515 18.568C60.9435 18.9787 61.7462 19.184 62.9595 19.184C63.7062 19.184 64.3689 19.1373 64.9475 19.044C65.5449 18.932 66.0769 18.8013 66.5435 18.652V23.804C65.9089 23.9907 65.1249 24.1493 64.1916 24.28C63.2769 24.4293 62.3155 24.504 61.3075 24.504C59.4035 24.504 57.8262 24.224 56.5755 23.664C55.3249 23.0853 54.3915 22.2547 53.7755 21.172C53.1595 20.0893 52.8515 18.8013 52.8515 17.308V13.08H49.6875Z" fill="#A7CABF"/>
<path d="M78.1681 24.504C76.0401 24.504 74.1735 24.1493 72.5681 23.44C70.9815 22.7307 69.7401 21.732 68.8441 20.444C67.9668 19.156 67.5281 17.6627 67.5281 15.964C67.5281 14.2467 67.9668 12.744 68.8441 11.456C69.7401 10.168 70.9815 9.16933 72.5681 8.46C74.1735 7.75067 76.0401 7.396 78.1681 7.396C80.2961 7.396 82.1535 7.75067 83.7401 8.46C85.3455 9.16933 86.5868 10.168 87.4641 11.456C88.3601 12.744 88.8081 14.2467 88.8081 15.964C88.8081 17.6627 88.3601 19.156 87.4641 20.444C86.5868 21.732 85.3455 22.7307 83.7401 23.44C82.1535 24.1493 80.2961 24.504 78.1681 24.504ZM78.1681 19.324C78.9148 19.324 79.5401 19.1933 80.0441 18.932C80.5668 18.6707 80.9588 18.288 81.2201 17.784C81.5001 17.28 81.6401 16.6733 81.6401 15.964C81.6401 15.236 81.5001 14.62 81.2201 14.116C80.9588 13.612 80.5668 13.2293 80.0441 12.968C79.5401 12.7067 78.9148 12.576 78.1681 12.576C77.4401 12.576 76.8148 12.7067 76.2921 12.968C75.7695 13.2293 75.3681 13.612 75.0881 14.116C74.8268 14.62 74.6961 15.2267 74.6961 15.936C74.6961 16.664 74.8268 17.28 75.0881 17.784C75.3681 18.288 75.7695 18.6707 76.2921 18.932C76.8148 19.1933 77.4401 19.324 78.1681 19.324Z" fill="#A7CABF"/>
<path d="M94.4033 11.204H109.747V17.224H94.4033V11.204ZM110.307 3V9.02H94.7953L98.0993 5.8V24H90.8753V3H110.307Z" fill="#A7CABF"/>
<path d="M120.685 24L127.937 15.096V16.692L121.105 7.9H128.889L132.809 12.828H131.017L134.909 7.9H142.665L135.497 16.776L135.105 14.396L143.085 24H135.049L130.849 18.764H132.753L128.609 24H120.685Z" fill="#A7CABF"/>
</g>
<defs>
<clipPath id="clip0_929_15">
<rect width="143" height="24" fill="white"/>
</clipPath>
</defs>
</svg>
