<svg width="56" height="56" viewBox="0 0 56 56" fill="none" xmlns="http://www.w3.org/2000/svg">
<path fill-rule="evenodd" clip-rule="evenodd" d="M55.5 8C55.5 3.85788 52.1423 0.5 48 0.5H8C3.85788 0.5 0.5 3.85788 0.5 8V48C0.5 52.1423 3.85788 55.5 8 55.5H48C52.1423 55.5 55.5 52.1423 55.5 48V8ZM50.5 8C50.5 6.6193 49.3807 5.5 48 5.5H8C6.6193 5.5 5.5 6.6193 5.5 8V48C5.5 49.3807 6.6193 50.5 8 50.5H48C49.3807 50.5 50.5 49.3807 50.5 48V8Z" fill="#A7CABF"/>
<path d="M10.0166 41.8046L20.8052 22.0255C21.7527 20.2884 24.2472 20.2884 25.1947 22.0255L33.1162 36.5483L35.8294 31.8003C36.7892 30.1208 39.2107 30.1208 40.1704 31.8003L45.8627 41.7616C46.8149 43.4281 45.6114 45.5018 43.6919 45.5018H12.2113C10.3136 45.5018 9.10786 43.4706 10.0166 41.8046Z" fill="#A7CABF"/>
<path d="M43 18C43 20.7614 40.7615 23 38 23C35.2385 23 33 20.7614 33 18C33 15.2386 35.2385 13 38 13C40.7615 13 43 15.2386 43 18Z" fill="#A7CABF"/>
</svg>
